<svg width="120" height="20" viewBox="0 0 120 20" fill="none" xmlns="http://www.w3.org/2000/svg">
<rect y="6" width="16" height="8" rx="4" fill="#C73031"/>
<path d="M21.4513 14V5.27273H24.5025C25.1104 5.27273 25.6119 5.37784 26.0067 5.58807C26.4016 5.79545 26.6957 6.07528 26.8888 6.42756C27.082 6.77699 27.1786 7.16477 27.1786 7.59091C27.1786 7.96591 27.1119 8.27557 26.9783 8.51989C26.8477 8.7642 26.6744 8.95739 26.4585 9.09943C26.2454 9.24148 26.0138 9.34659 25.7638 9.41477V9.5C26.0309 9.51705 26.2994 9.6108 26.5692 9.78125C26.8391 9.9517 27.065 10.196 27.2468 10.5142C27.4286 10.8324 27.5195 11.2216 27.5195 11.6818C27.5195 12.1193 27.4201 12.5128 27.2212 12.8622C27.0224 13.2116 26.7085 13.4886 26.2795 13.6932C25.8505 13.8977 25.2923 14 24.6048 14H21.4513ZM22.5082 13.0625H24.6048C25.2951 13.0625 25.7852 12.929 26.0749 12.6619C26.3675 12.392 26.5138 12.0653 26.5138 11.6818C26.5138 11.3864 26.4386 11.1136 26.288 10.8636C26.1374 10.6108 25.9229 10.4091 25.6445 10.2585C25.3661 10.1051 25.0366 10.0284 24.6559 10.0284H22.5082V13.0625ZM22.5082 9.10795H24.4684C24.7866 9.10795 25.0735 9.04545 25.3292 8.92045C25.5877 8.79545 25.7923 8.61932 25.9428 8.39205C26.0962 8.16477 26.1729 7.89773 26.1729 7.59091C26.1729 7.20739 26.0394 6.8821 25.7724 6.61506C25.5053 6.34517 25.082 6.21023 24.5025 6.21023H22.5082V9.10795ZM30.1254 5.27273V14H29.1197V5.27273H30.1254ZM34.6264 14.1364C34.0355 14.1364 33.517 13.9957 33.071 13.7145C32.6278 13.4332 32.2812 13.0398 32.0312 12.5341C31.7841 12.0284 31.6605 11.4375 31.6605 10.7614C31.6605 10.0795 31.7841 9.48437 32.0312 8.97585C32.2812 8.46733 32.6278 8.07244 33.071 7.79119C33.517 7.50994 34.0355 7.36932 34.6264 7.36932C35.2173 7.36932 35.7344 7.50994 36.1776 7.79119C36.6236 8.07244 36.9702 8.46733 37.2173 8.97585C37.4673 9.48437 37.5923 10.0795 37.5923 10.7614C37.5923 11.4375 37.4673 12.0284 37.2173 12.5341C36.9702 13.0398 36.6236 13.4332 36.1776 13.7145C35.7344 13.9957 35.2173 14.1364 34.6264 14.1364ZM34.6264 13.233C35.0753 13.233 35.4446 13.1179 35.7344 12.8878C36.0241 12.6577 36.2386 12.3551 36.3778 11.9801C36.517 11.6051 36.5866 11.1989 36.5866 10.7614C36.5866 10.3239 36.517 9.91619 36.3778 9.53835C36.2386 9.16051 36.0241 8.85511 35.7344 8.62216C35.4446 8.3892 35.0753 8.27273 34.6264 8.27273C34.1776 8.27273 33.8082 8.3892 33.5185 8.62216C33.2287 8.85511 33.0142 9.16051 32.875 9.53835C32.7358 9.91619 32.6662 10.3239 32.6662 10.7614C32.6662 11.1989 32.7358 11.6051 32.875 11.9801C33.0142 12.3551 33.2287 12.6577 33.5185 12.8878C33.8082 13.1179 34.1776 13.233 34.6264 13.233ZM41.7866 14.1364C41.1729 14.1364 40.6445 13.9915 40.2013 13.7017C39.7582 13.4119 39.4173 13.0128 39.1786 12.5043C38.94 11.9957 38.8207 11.4148 38.8207 10.7614C38.8207 10.0966 38.9428 9.50994 39.1871 9.00142C39.4343 8.49006 39.7781 8.09091 40.2184 7.80398C40.6616 7.5142 41.1786 7.36932 41.7695 7.36932C42.2298 7.36932 42.6445 7.45455 43.0138 7.625C43.3832 7.79545 43.6857 8.03409 43.9215 8.34091C44.1573 8.64773 44.3036 9.00568 44.3604 9.41477H43.3548C43.2781 9.11648 43.1076 8.85227 42.8434 8.62216C42.582 8.3892 42.2298 8.27273 41.7866 8.27273C41.3945 8.27273 41.0508 8.375 40.7553 8.57955C40.4627 8.78125 40.234 9.06676 40.0692 9.43608C39.9073 9.80256 39.8263 10.233 39.8263 10.7273C39.8263 11.233 39.9059 11.6733 40.065 12.0483C40.2269 12.4233 40.4542 12.7145 40.7468 12.9219C41.0423 13.1293 41.3888 13.233 41.7866 13.233C42.0479 13.233 42.2852 13.1875 42.4982 13.0966C42.7113 13.0057 42.8917 12.875 43.0394 12.7045C43.1871 12.5341 43.2923 12.3295 43.3548 12.0909H44.3604C44.3036 12.4773 44.163 12.8253 43.9386 13.1349C43.717 13.4418 43.4229 13.6861 43.0565 13.8679C42.6928 14.0469 42.2695 14.1364 41.7866 14.1364ZM46.7681 11.6136L46.7511 10.3693H46.9556L49.8192 7.45455H51.0636L48.0124 10.5398H47.9272L46.7681 11.6136ZM45.8306 14V5.27273H46.8363V14H45.8306ZM49.9897 14L47.4329 10.7614L48.1488 10.0625L51.2681 14H49.9897ZM54.8327 14.1364C54.2021 14.1364 53.658 13.9972 53.2006 13.7188C52.7461 13.4375 52.3952 13.0455 52.1481 12.5426C51.9038 12.0369 51.7816 11.4489 51.7816 10.7784C51.7816 10.108 51.9038 9.51705 52.1481 9.00568C52.3952 8.49148 52.739 8.09091 53.1793 7.80398C53.6225 7.5142 54.1396 7.36932 54.7305 7.36932C55.0714 7.36932 55.408 7.42614 55.7404 7.53977C56.0728 7.65341 56.3754 7.83807 56.6481 8.09375C56.9208 8.34659 57.1381 8.68182 57.3001 9.09943C57.462 9.51705 57.543 10.0312 57.543 10.642V11.0682H52.4975V10.1989H56.5202C56.5202 9.82955 56.4464 9.5 56.2987 9.21023C56.1538 8.92045 55.9464 8.69176 55.6765 8.52415C55.4094 8.35653 55.0941 8.27273 54.7305 8.27273C54.3299 8.27273 53.9833 8.37216 53.6907 8.57102C53.4009 8.76705 53.1779 9.02273 53.0217 9.33807C52.8654 9.65341 52.7873 9.99148 52.7873 10.3523V10.9318C52.7873 11.4261 52.8725 11.8452 53.043 12.1889C53.2163 12.5298 53.4563 12.7898 53.7631 12.9688C54.07 13.1449 54.4265 13.233 54.8327 13.233C55.0969 13.233 55.3356 13.196 55.5487 13.1222C55.7646 13.0455 55.9506 12.9318 56.1069 12.7812C56.2631 12.6278 56.3839 12.4375 56.4691 12.2102L57.4407 12.483C57.3384 12.8125 57.1665 13.1023 56.9251 13.3523C56.6836 13.5994 56.3853 13.7926 56.0302 13.9318C55.6751 14.0682 55.2759 14.1364 54.8327 14.1364ZM61.5444 14.1364C60.9989 14.1364 60.5174 13.9986 60.0998 13.723C59.6822 13.4446 59.3555 13.0526 59.1197 12.5469C58.8839 12.0384 58.766 11.4375 58.766 10.7443C58.766 10.0568 58.8839 9.46023 59.1197 8.95455C59.3555 8.44886 59.6836 8.05824 60.104 7.78267C60.5245 7.5071 61.0103 7.36932 61.5614 7.36932C61.9876 7.36932 62.3242 7.44034 62.5714 7.58239C62.8214 7.72159 63.0117 7.88068 63.1424 8.05966C63.2759 8.2358 63.3796 8.38068 63.4535 8.49432H63.5387V5.27273H64.5444V14H63.5728V12.9943H63.4535C63.3796 13.1136 63.2745 13.2642 63.1381 13.446C63.0018 13.625 62.8072 13.7855 62.5543 13.9276C62.3015 14.0668 61.9648 14.1364 61.5444 14.1364ZM61.6808 13.233C62.0842 13.233 62.4251 13.1278 62.7035 12.9176C62.9819 12.7045 63.1935 12.4105 63.3384 12.0355C63.4833 11.6577 63.5558 11.2216 63.5558 10.7273C63.5558 10.2386 63.4847 9.81108 63.3427 9.4446C63.2006 9.07528 62.9904 8.78835 62.712 8.58381C62.4336 8.37642 62.0898 8.27273 61.6808 8.27273C61.2546 8.27273 60.8995 8.3821 60.6154 8.60085C60.3342 8.81676 60.1225 9.1108 59.9805 9.48295C59.8413 9.85227 59.7717 10.267 59.7717 10.7273C59.7717 11.1932 59.8427 11.6165 59.9847 11.9972C60.1296 12.375 60.3427 12.6761 60.6239 12.9006C60.908 13.1222 61.2603 13.233 61.6808 13.233Z" fill="#4C4C4C"/>
</svg>
