<svg width="97" height="16" viewBox="0 0 97 16" fill="none" xmlns="http://www.w3.org/2000/svg">
<rect x="0.5" y="4.5" width="15" height="7" rx="3.5" fill="#E0E0E0"/>
<rect x="0.5" y="4.5" width="15" height="7" rx="3.5" stroke="#4C4C4C"/>
<path d="M30.8942 7.09233H29.7862C29.7436 6.85559 29.6643 6.64725 29.5483 6.46733C29.4323 6.28741 29.2902 6.13471 29.1222 6.00923C28.9541 5.88376 28.7659 5.78906 28.5575 5.72514C28.3516 5.66122 28.1326 5.62926 27.9006 5.62926C27.4815 5.62926 27.1063 5.73461 26.7749 5.94531C26.4458 6.15601 26.1854 6.46496 25.9936 6.87216C25.8042 7.27936 25.7095 7.77652 25.7095 8.36364C25.7095 8.95549 25.8042 9.45502 25.9936 9.86222C26.1854 10.2694 26.447 10.5772 26.7784 10.7855C27.1098 10.9938 27.4827 11.098 27.897 11.098C28.1267 11.098 28.3445 11.0672 28.5504 11.0057C28.7588 10.9418 28.947 10.8482 29.1151 10.7251C29.2831 10.602 29.4252 10.4517 29.5412 10.2741C29.6596 10.0942 29.7412 9.88826 29.7862 9.65625L30.8942 9.6598C30.835 10.0173 30.7202 10.3464 30.5497 10.647C30.3816 10.9453 30.165 11.2034 29.8999 11.4212C29.6371 11.6366 29.3364 11.8035 28.9979 11.9219C28.6593 12.0402 28.29 12.0994 27.8899 12.0994C27.2602 12.0994 26.6991 11.9503 26.2067 11.652C25.7143 11.3513 25.326 10.9216 25.0419 10.3629C24.7602 9.80421 24.6193 9.13778 24.6193 8.36364C24.6193 7.58712 24.7614 6.92069 25.0455 6.36435C25.3295 5.80563 25.7178 5.37713 26.2102 5.07884C26.7027 4.77817 27.2625 4.62784 27.8899 4.62784C28.2758 4.62784 28.6357 4.68348 28.9695 4.79474C29.3056 4.90365 29.6075 5.06463 29.875 5.2777C30.1425 5.4884 30.3639 5.74645 30.5391 6.05185C30.7143 6.35488 30.8326 6.7017 30.8942 7.09233ZM33.7093 12.1207C33.3637 12.1207 33.0512 12.0568 32.7718 11.929C32.4925 11.7988 32.2711 11.6106 32.1078 11.3643C31.9468 11.1181 31.8663 10.8163 31.8663 10.4588C31.8663 10.151 31.9255 9.89773 32.0439 9.69886C32.1622 9.5 32.322 9.34257 32.5233 9.22656C32.7245 9.11056 32.9494 9.02296 33.198 8.96378C33.4466 8.90459 33.6999 8.85961 33.9579 8.82884C34.2846 8.79096 34.5498 8.76018 34.7534 8.73651C34.957 8.71046 35.1049 8.66903 35.1973 8.61222C35.2896 8.5554 35.3358 8.46307 35.3358 8.33523V8.31037C35.3358 8.00024 35.2482 7.75994 35.073 7.58949C34.9002 7.41903 34.6421 7.33381 34.2988 7.33381C33.9413 7.33381 33.6596 7.41312 33.4537 7.57173C33.2501 7.72798 33.1092 7.90199 33.0311 8.09375L32.0332 7.86648C32.1516 7.53504 32.3244 7.26752 32.5517 7.06392C32.7813 6.85795 33.0453 6.70881 33.3436 6.61648C33.6419 6.52178 33.9556 6.47443 34.2846 6.47443C34.5024 6.47443 34.7333 6.50047 34.9771 6.55256C35.2233 6.60227 35.4529 6.6946 35.666 6.82955C35.8815 6.96449 36.0578 7.15743 36.1951 7.40838C36.3324 7.65696 36.4011 7.98011 36.4011 8.37784V12H35.3642V11.2543H35.3216C35.2529 11.3916 35.1499 11.5265 35.0126 11.6591C34.8753 11.7917 34.6989 11.9018 34.4835 11.9893C34.2681 12.0769 34.01 12.1207 33.7093 12.1207ZM33.9402 11.2685C34.2337 11.2685 34.4847 11.2105 34.693 11.0945C34.9037 10.9785 35.0635 10.8269 35.1724 10.6399C35.2837 10.4505 35.3393 10.2481 35.3393 10.0327V9.32955C35.3014 9.36742 35.228 9.40294 35.1191 9.43608C35.0126 9.46686 34.8907 9.49408 34.7534 9.51776C34.6161 9.53906 34.4823 9.55919 34.3521 9.57812C34.2219 9.5947 34.113 9.6089 34.0254 9.62074C33.8194 9.64678 33.6312 9.69058 33.4608 9.75213C33.2927 9.81368 33.1577 9.90246 33.0559 10.0185C32.9565 10.1321 32.9068 10.2836 32.9068 10.473C32.9068 10.7358 33.0038 10.9347 33.198 11.0696C33.3921 11.2022 33.6395 11.2685 33.9402 11.2685ZM38.8771 4.72727V12H37.8153V4.72727H38.8771ZM42.6564 12.1101C42.119 12.1101 41.6562 11.9953 41.2679 11.7656C40.882 11.5336 40.5837 11.2081 40.373 10.7891C40.1647 10.3677 40.0605 9.87405 40.0605 9.30824C40.0605 8.74953 40.1647 8.2571 40.373 7.83097C40.5837 7.40483 40.8773 7.07221 41.2537 6.8331C41.6325 6.59399 42.0752 6.47443 42.5819 6.47443C42.8896 6.47443 43.1879 6.52533 43.4767 6.62713C43.7656 6.72893 44.0248 6.88873 44.2544 7.10653C44.4841 7.32434 44.6652 7.60724 44.7978 7.95526C44.9303 8.3009 44.9966 8.72112 44.9966 9.21591V9.59233H40.6607V8.79688H43.9561C43.9561 8.51752 43.8993 8.27012 43.7857 8.05469C43.6721 7.83688 43.5123 7.66525 43.3063 7.53977C43.1027 7.4143 42.8636 7.35156 42.589 7.35156C42.2907 7.35156 42.0302 7.42495 41.8077 7.57173C41.5875 7.71615 41.4171 7.90554 41.2963 8.13991C41.178 8.37192 41.1188 8.62405 41.1188 8.89631V9.51776C41.1188 9.88234 41.1827 10.1925 41.3105 10.4482C41.4408 10.7038 41.6219 10.8991 41.8539 11.0341C42.0859 11.1667 42.3569 11.233 42.6671 11.233C42.8683 11.233 43.0518 11.2045 43.2175 11.1477C43.3832 11.0885 43.5265 11.0009 43.6472 10.8849C43.7679 10.7689 43.8603 10.6257 43.9242 10.4553L44.9292 10.6364C44.8487 10.9323 44.7042 11.1915 44.4959 11.4141C44.29 11.6342 44.0307 11.8059 43.7182 11.929C43.4081 12.0497 43.0542 12.1101 42.6564 12.1101ZM47.2365 8.76136V12H46.1747V6.54545H47.1939V7.43324H47.2614C47.3868 7.14441 47.5833 6.91241 47.8509 6.73722C48.1207 6.56203 48.4605 6.47443 48.87 6.47443C49.2417 6.47443 49.5672 6.55256 49.8466 6.70881C50.1259 6.86269 50.3426 7.09233 50.4964 7.39773C50.6503 7.70312 50.7273 8.08073 50.7273 8.53054V12H49.6655V8.65838C49.6655 8.26302 49.5625 7.95407 49.3565 7.73153C49.1506 7.50663 48.8677 7.39418 48.5078 7.39418C48.2616 7.39418 48.0426 7.44744 47.8509 7.55398C47.6615 7.66051 47.5111 7.81676 47.3999 8.02273C47.291 8.22633 47.2365 8.47254 47.2365 8.76136ZM54.1932 12.1065C53.7528 12.1065 53.3598 11.9941 53.0142 11.7692C52.6709 11.5419 52.401 11.2187 52.2045 10.7997C52.0104 10.3783 51.9134 9.87287 51.9134 9.28338C51.9134 8.69389 52.0116 8.18963 52.2081 7.7706C52.407 7.35156 52.6792 7.03078 53.0249 6.80824C53.3705 6.5857 53.7623 6.47443 54.2003 6.47443C54.5388 6.47443 54.8111 6.53125 55.017 6.64489C55.2254 6.75616 55.3864 6.88636 55.5 7.03551C55.616 7.18466 55.706 7.31605 55.7699 7.42969H55.8338V4.72727H56.8956V12H55.8587V11.1513H55.7699C55.706 11.2673 55.6136 11.3999 55.4929 11.549C55.3745 11.6982 55.2112 11.8284 55.0028 11.9396C54.7945 12.0509 54.5246 12.1065 54.1932 12.1065ZM54.4276 11.201C54.733 11.201 54.991 11.1205 55.2017 10.9595C55.4148 10.7962 55.5758 10.5701 55.6847 10.2812C55.7959 9.99242 55.8516 9.65625 55.8516 9.27273C55.8516 8.89394 55.7971 8.5625 55.6882 8.27841C55.5793 7.99432 55.4195 7.77296 55.2088 7.61435C54.9981 7.45573 54.7377 7.37642 54.4276 7.37642C54.108 7.37642 53.8416 7.45928 53.6286 7.625C53.4155 7.79072 53.2545 8.01681 53.1456 8.30327C53.0391 8.58973 52.9858 8.91288 52.9858 9.27273C52.9858 9.63731 53.0402 9.9652 53.1491 10.2564C53.258 10.5476 53.419 10.7784 53.6321 10.9489C53.8475 11.117 54.1127 11.201 54.4276 11.201ZM59.9984 12.1207C59.6528 12.1207 59.3403 12.0568 59.0609 11.929C58.7815 11.7988 58.5602 11.6106 58.3968 11.3643C58.2359 11.1181 58.1554 10.8163 58.1554 10.4588C58.1554 10.151 58.2145 9.89773 58.3329 9.69886C58.4513 9.5 58.6111 9.34257 58.8123 9.22656C59.0136 9.11056 59.2385 9.02296 59.487 8.96378C59.7356 8.90459 59.9889 8.85961 60.247 8.82884C60.5737 8.79096 60.8388 8.76018 61.0424 8.73651C61.246 8.71046 61.394 8.66903 61.4863 8.61222C61.5787 8.5554 61.6248 8.46307 61.6248 8.33523V8.31037C61.6248 8.00024 61.5372 7.75994 61.362 7.58949C61.1892 7.41903 60.9312 7.33381 60.5879 7.33381C60.2304 7.33381 59.9487 7.41312 59.7427 7.57173C59.5391 7.72798 59.3983 7.90199 59.3201 8.09375L58.3223 7.86648C58.4406 7.53504 58.6135 7.26752 58.8407 7.06392C59.0704 6.85795 59.3343 6.70881 59.6326 6.61648C59.9309 6.52178 60.2446 6.47443 60.5737 6.47443C60.7915 6.47443 61.0223 6.50047 61.2662 6.55256C61.5124 6.60227 61.742 6.6946 61.9551 6.82955C62.1705 6.96449 62.3469 7.15743 62.4842 7.40838C62.6215 7.65696 62.6902 7.98011 62.6902 8.37784V12H61.6532V11.2543H61.6106C61.542 11.3916 61.439 11.5265 61.3017 11.6591C61.1644 11.7917 60.988 11.9018 60.7725 11.9893C60.5571 12.0769 60.2991 12.1207 59.9984 12.1207ZM60.2292 11.2685C60.5228 11.2685 60.7737 11.2105 60.9821 11.0945C61.1928 10.9785 61.3526 10.8269 61.4615 10.6399C61.5727 10.4505 61.6284 10.2481 61.6284 10.0327V9.32955C61.5905 9.36742 61.5171 9.40294 61.4082 9.43608C61.3017 9.46686 61.1797 9.49408 61.0424 9.51776C60.9051 9.53906 60.7714 9.55919 60.6412 9.57812C60.5109 9.5947 60.402 9.6089 60.3145 9.62074C60.1085 9.64678 59.9203 9.69058 59.7498 9.75213C59.5817 9.81368 59.4468 9.90246 59.345 10.0185C59.2456 10.1321 59.1958 10.2836 59.1958 10.473C59.1958 10.7358 59.2929 10.9347 59.487 11.0696C59.6812 11.2022 59.9286 11.2685 60.2292 11.2685ZM64.1044 12V6.54545H65.1307V7.41193H65.1875C65.2869 7.11837 65.4621 6.88755 65.7131 6.71946C65.9664 6.54901 66.2528 6.46378 66.5724 6.46378C66.6387 6.46378 66.7169 6.46615 66.8068 6.47088C66.8991 6.47562 66.9714 6.48153 67.0234 6.48864V7.50426C66.9808 7.49242 66.9051 7.4794 66.7962 7.4652C66.6873 7.44863 66.5784 7.44034 66.4695 7.44034C66.2185 7.44034 65.9948 7.49361 65.7983 7.60014C65.6042 7.70431 65.4503 7.84991 65.3366 8.03693C65.223 8.22159 65.1662 8.43229 65.1662 8.66903V12H64.1044ZM70.674 12V4.72727H75.2337V5.67188H71.7713V7.88778H74.9957V8.82884H71.7713V11.0554H75.2763V12H70.674ZM81.2804 6.54545L79.3024 12H78.166L76.1845 6.54545H77.3244L78.7058 10.7429H78.7626L80.1404 6.54545H81.2804ZM84.4435 12.1101C83.9061 12.1101 83.4433 11.9953 83.055 11.7656C82.6692 11.5336 82.3709 11.2081 82.1602 10.7891C81.9518 10.3677 81.8477 9.87405 81.8477 9.30824C81.8477 8.74953 81.9518 8.2571 82.1602 7.83097C82.3709 7.40483 82.6644 7.07221 83.0408 6.8331C83.4196 6.59399 83.8623 6.47443 84.369 6.47443C84.6767 6.47443 84.975 6.52533 85.2638 6.62713C85.5527 6.72893 85.8119 6.88873 86.0415 7.10653C86.2712 7.32434 86.4523 7.60724 86.5849 7.95526C86.7174 8.3009 86.7837 8.72112 86.7837 9.21591V9.59233H82.4478V8.79688H85.7433C85.7433 8.51752 85.6864 8.27012 85.5728 8.05469C85.4592 7.83688 85.2994 7.66525 85.0934 7.53977C84.8898 7.4143 84.6507 7.35156 84.3761 7.35156C84.0778 7.35156 83.8174 7.42495 83.5948 7.57173C83.3746 7.71615 83.2042 7.90554 83.0835 8.13991C82.9651 8.37192 82.9059 8.62405 82.9059 8.89631V9.51776C82.9059 9.88234 82.9698 10.1925 83.0977 10.4482C83.2279 10.7038 83.409 10.8991 83.641 11.0341C83.873 11.1667 84.1441 11.233 84.4542 11.233C84.6554 11.233 84.8389 11.2045 85.0046 11.1477C85.1703 11.0885 85.3136 11.0009 85.4343 10.8849C85.555 10.7689 85.6474 10.6257 85.7113 10.4553L86.7163 10.6364C86.6358 10.9323 86.4914 11.1915 86.283 11.4141C86.0771 11.6342 85.8178 11.8059 85.5053 11.929C85.1952 12.0497 84.8413 12.1101 84.4435 12.1101ZM89.0236 8.76136V12H87.9618V6.54545H88.981V7.43324H89.0485C89.1739 7.14441 89.3704 6.91241 89.638 6.73722C89.9078 6.56203 90.2476 6.47443 90.6571 6.47443C91.0288 6.47443 91.3543 6.55256 91.6337 6.70881C91.9131 6.86269 92.1297 7.09233 92.2836 7.39773C92.4374 7.70312 92.5144 8.08073 92.5144 8.53054V12H91.4526V8.65838C91.4526 8.26302 91.3496 7.95407 91.1436 7.73153C90.9377 7.50663 90.6548 7.39418 90.2949 7.39418C90.0487 7.39418 89.8297 7.44744 89.638 7.55398C89.4486 7.66051 89.2982 7.81676 89.187 8.02273C89.0781 8.22633 89.0236 8.47254 89.0236 8.76136ZM96.4846 6.54545V7.39773H93.5051V6.54545H96.4846ZM94.3042 5.23864H95.3659V10.3984C95.3659 10.6044 95.3967 10.7595 95.4583 10.8636C95.5198 10.9654 95.5991 11.0353 95.6962 11.0732C95.7956 11.1087 95.9033 11.1264 96.0194 11.1264C96.1046 11.1264 96.1792 11.1205 96.2431 11.1087C96.307 11.0968 96.3567 11.0874 96.3922 11.0803L96.584 11.9574C96.5224 11.9811 96.4348 12.0047 96.3212 12.0284C96.2076 12.0545 96.0655 12.0687 95.8951 12.071C95.6157 12.0758 95.3553 12.026 95.1138 11.9219C94.8723 11.8177 94.677 11.6567 94.5279 11.4389C94.3787 11.2211 94.3042 10.9477 94.3042 10.6186V5.23864Z" fill="#4C4C4C"/>
</svg>
