<svg width="120" height="20" viewBox="0 0 120 20" fill="none" xmlns="http://www.w3.org/2000/svg">
<rect y="6" width="16" height="8" rx="4" fill="#E76943"/>
<path d="M28.6763 9.63636C28.6763 10.5568 28.5101 11.3523 28.1777 12.0227C27.8453 12.6932 27.3894 13.2102 26.8098 13.5739C26.2303 13.9375 25.5684 14.1193 24.824 14.1193C24.0797 14.1193 23.4178 13.9375 22.8382 13.5739C22.2587 13.2102 21.8027 12.6932 21.4703 12.0227C21.138 11.3523 20.9718 10.5568 20.9718 9.63636C20.9718 8.71591 21.138 7.92045 21.4703 7.25C21.8027 6.57955 22.2587 6.0625 22.8382 5.69886C23.4178 5.33523 24.0797 5.15341 24.824 5.15341C25.5684 5.15341 26.2303 5.33523 26.8098 5.69886C27.3894 6.0625 27.8453 6.57955 28.1777 7.25C28.5101 7.92045 28.6763 8.71591 28.6763 9.63636ZM27.6536 9.63636C27.6536 8.88068 27.5272 8.2429 27.2743 7.72301C27.0243 7.20312 26.6848 6.80966 26.2559 6.54261C25.8297 6.27557 25.3525 6.14205 24.824 6.14205C24.2956 6.14205 23.8169 6.27557 23.388 6.54261C22.9618 6.80966 22.6223 7.20312 22.3695 7.72301C22.1195 8.2429 21.9945 8.88068 21.9945 9.63636C21.9945 10.392 22.1195 11.0298 22.3695 11.5497C22.6223 12.0696 22.9618 12.4631 23.388 12.7301C23.8169 12.9972 24.2956 13.1307 24.824 13.1307C25.3525 13.1307 25.8297 12.9972 26.2559 12.7301C26.6848 12.4631 27.0243 12.0696 27.2743 11.5497C27.5272 11.0298 27.6536 10.392 27.6536 9.63636ZM33.2317 7.45455V8.30682H29.7033V7.45455H33.2317ZM30.7601 14V6.55114C30.7601 6.17614 30.8482 5.86364 31.0243 5.61364C31.2005 5.36364 31.4292 5.17614 31.7104 5.05114C31.9917 4.92614 32.2885 4.86364 32.601 4.86364C32.8482 4.86364 33.0499 4.88352 33.2061 4.9233C33.3624 4.96307 33.4789 5 33.5556 5.03409L33.2658 5.90341C33.2147 5.88636 33.1436 5.86506 33.0527 5.83949C32.9647 5.81392 32.8482 5.80114 32.7033 5.80114C32.3709 5.80114 32.1309 5.88494 31.9831 6.05256C31.8382 6.22017 31.7658 6.46591 31.7658 6.78977V14H30.7601ZM37.5559 7.45455V8.30682H34.0275V7.45455H37.5559ZM35.0843 14V6.55114C35.0843 6.17614 35.1724 5.86364 35.3485 5.61364C35.5247 5.36364 35.7534 5.17614 36.0346 5.05114C36.3159 4.92614 36.6127 4.86364 36.9252 4.86364C37.1724 4.86364 37.3741 4.88352 37.5304 4.9233C37.6866 4.96307 37.8031 5 37.8798 5.03409L37.59 5.90341C37.5389 5.88636 37.4679 5.86506 37.377 5.83949C37.2889 5.81392 37.1724 5.80114 37.0275 5.80114C36.6951 5.80114 36.4551 5.88494 36.3074 6.05256C36.1625 6.22017 36.09 6.46591 36.09 6.78977V14H35.0843ZM39.9711 5.27273V14H38.9654V5.27273H39.9711ZM41.813 14V7.45455H42.8187V14H41.813ZM42.3244 6.36364C42.1284 6.36364 41.9593 6.29688 41.8173 6.16335C41.6781 6.02983 41.6085 5.86932 41.6085 5.68182C41.6085 5.49432 41.6781 5.33381 41.8173 5.20028C41.9593 5.06676 42.1284 5 42.3244 5C42.5204 5 42.688 5.06676 42.8272 5.20028C42.9693 5.33381 43.0403 5.49432 43.0403 5.68182C43.0403 5.86932 42.9693 6.02983 42.8272 6.16335C42.688 6.29688 42.5204 6.36364 42.3244 6.36364ZM45.6664 10.0625V14H44.6607V7.45455H45.6323V8.47727H45.7175C45.8709 8.14489 46.1039 7.87784 46.4164 7.67614C46.7289 7.47159 47.1323 7.36932 47.6266 7.36932C48.0698 7.36932 48.4576 7.46023 48.79 7.64205C49.1223 7.82102 49.3809 8.09375 49.5655 8.46023C49.7502 8.82386 49.8425 9.28409 49.8425 9.84091V14H48.8368V9.90909C48.8368 9.39489 48.7033 8.99432 48.4363 8.70739C48.1692 8.41761 47.8027 8.27273 47.3368 8.27273C47.0158 8.27273 46.7289 8.34233 46.476 8.48153C46.226 8.62074 46.0286 8.82386 45.8837 9.09091C45.7388 9.35795 45.6664 9.68182 45.6664 10.0625ZM54.4245 14.1364C53.7939 14.1364 53.2498 13.9972 52.7924 13.7188C52.3379 13.4375 51.987 13.0455 51.7399 12.5426C51.4956 12.0369 51.3734 11.4489 51.3734 10.7784C51.3734 10.108 51.4956 9.51705 51.7399 9.00568C51.987 8.49148 52.3308 8.09091 52.7711 7.80398C53.2143 7.5142 53.7314 7.36932 54.3223 7.36932C54.6632 7.36932 54.9998 7.42614 55.3322 7.53977C55.6646 7.65341 55.9672 7.83807 56.2399 8.09375C56.5126 8.34659 56.7299 8.68182 56.8919 9.09943C57.0538 9.51705 57.1348 10.0312 57.1348 10.642V11.0682H52.0893V10.1989H56.112C56.112 9.82955 56.0382 9.5 55.8904 9.21023C55.7456 8.92045 55.5382 8.69176 55.2683 8.52415C55.0012 8.35653 54.6859 8.27273 54.3223 8.27273C53.9217 8.27273 53.5751 8.37216 53.2825 8.57102C52.9927 8.76705 52.7697 9.02273 52.6135 9.33807C52.4572 9.65341 52.3791 9.99148 52.3791 10.3523V10.9318C52.3791 11.4261 52.4643 11.8452 52.6348 12.1889C52.8081 12.5298 53.0481 12.7898 53.3549 12.9688C53.6618 13.1449 54.0183 13.233 54.4245 13.233C54.6887 13.233 54.9274 13.196 55.1404 13.1222C55.3564 13.0455 55.5424 12.9318 55.6987 12.7812C55.8549 12.6278 55.9757 12.4375 56.0609 12.2102L57.0325 12.483C56.9302 12.8125 56.7583 13.1023 56.5169 13.3523C56.2754 13.5994 55.9771 13.7926 55.622 13.9318C55.2669 14.0682 54.8677 14.1364 54.4245 14.1364Z" fill="#4C4C4C"/>
</svg>
