<svg width="120" height="20" viewBox="0 0 120 20" fill="none" xmlns="http://www.w3.org/2000/svg">
<rect y="6" width="16" height="8" rx="4" fill="#80490B"/>
<path d="M28.5787 9.63636C28.5787 10.5568 28.4125 11.3523 28.0801 12.0227C27.7477 12.6932 27.2917 13.2102 26.7122 13.5739C26.1326 13.9375 25.4707 14.1193 24.7264 14.1193C23.9821 14.1193 23.3201 13.9375 22.7406 13.5739C22.161 13.2102 21.7051 12.6932 21.3727 12.0227C21.0403 11.3523 20.8741 10.5568 20.8741 9.63636C20.8741 8.71591 21.0403 7.92045 21.3727 7.25C21.7051 6.57955 22.161 6.0625 22.7406 5.69886C23.3201 5.33523 23.9821 5.15341 24.7264 5.15341C25.4707 5.15341 26.1326 5.33523 26.7122 5.69886C27.2917 6.0625 27.7477 6.57955 28.0801 7.25C28.4125 7.92045 28.5787 8.71591 28.5787 9.63636ZM27.5559 9.63636C27.5559 8.88068 27.4295 8.2429 27.1767 7.72301C26.9267 7.20312 26.5872 6.80966 26.1582 6.54261C25.7321 6.27557 25.2548 6.14205 24.7264 6.14205C24.198 6.14205 23.7193 6.27557 23.2903 6.54261C22.8642 6.80966 22.5247 7.20312 22.2718 7.72301C22.0218 8.2429 21.8968 8.88068 21.8968 9.63636C21.8968 10.392 22.0218 11.0298 22.2718 11.5497C22.5247 12.0696 22.8642 12.4631 23.2903 12.7301C23.7193 12.9972 24.198 13.1307 24.7264 13.1307C25.2548 13.1307 25.7321 12.9972 26.1582 12.7301C26.5872 12.4631 26.9267 12.0696 27.1767 11.5497C27.4295 11.0298 27.5559 10.392 27.5559 9.63636ZM33.1341 7.45455V8.30682H29.6056V7.45455H33.1341ZM30.6625 14V6.55114C30.6625 6.17614 30.7505 5.86364 30.9267 5.61364C31.1028 5.36364 31.3315 5.17614 31.6127 5.05114C31.894 4.92614 32.1909 4.86364 32.5034 4.86364C32.7505 4.86364 32.9522 4.88352 33.1085 4.9233C33.2647 4.96307 33.3812 5 33.4579 5.03409L33.1681 5.90341C33.117 5.88636 33.046 5.86506 32.9551 5.83949C32.867 5.81392 32.7505 5.80114 32.6056 5.80114C32.2733 5.80114 32.0332 5.88494 31.8855 6.05256C31.7406 6.22017 31.6681 6.46591 31.6681 6.78977V14H30.6625ZM37.4583 7.45455V8.30682H33.9299V7.45455H37.4583ZM34.9867 14V6.55114C34.9867 6.17614 35.0748 5.86364 35.2509 5.61364C35.427 5.36364 35.6557 5.17614 35.937 5.05114C36.2182 4.92614 36.5151 4.86364 36.8276 4.86364C37.0748 4.86364 37.2765 4.88352 37.4327 4.9233C37.589 4.96307 37.7054 5 37.7821 5.03409L37.4924 5.90341C37.4412 5.88636 37.3702 5.86506 37.2793 5.83949C37.1912 5.81392 37.0748 5.80114 36.9299 5.80114C36.5975 5.80114 36.3574 5.88494 36.2097 6.05256C36.0648 6.22017 35.9924 6.46591 35.9924 6.78977V14H34.9867ZM39.8734 5.27273V14H38.8677V5.27273H39.8734ZM41.7154 14V7.45455H42.7211V14H41.7154ZM42.2267 6.36364C42.0307 6.36364 41.8617 6.29688 41.7196 6.16335C41.5804 6.02983 41.5108 5.86932 41.5108 5.68182C41.5108 5.49432 41.5804 5.33381 41.7196 5.20028C41.8617 5.06676 42.0307 5 42.2267 5C42.4228 5 42.5904 5.06676 42.7296 5.20028C42.8716 5.33381 42.9426 5.49432 42.9426 5.68182C42.9426 5.86932 42.8716 6.02983 42.7296 6.16335C42.5904 6.29688 42.4228 6.36364 42.2267 6.36364ZM45.5687 10.0625V14H44.563V7.45455H45.5346V8.47727H45.6199C45.7733 8.14489 46.0062 7.87784 46.3187 7.67614C46.6312 7.47159 47.0346 7.36932 47.5289 7.36932C47.9721 7.36932 48.3599 7.46023 48.6923 7.64205C49.0247 7.82102 49.2832 8.09375 49.4679 8.46023C49.6525 8.82386 49.7449 9.28409 49.7449 9.84091V14H48.7392V9.90909C48.7392 9.39489 48.6056 8.99432 48.3386 8.70739C48.0716 8.41761 47.7051 8.27273 47.2392 8.27273C46.9181 8.27273 46.6312 8.34233 46.3784 8.48153C46.1284 8.62074 45.9309 8.82386 45.786 9.09091C45.6412 9.35795 45.5687 9.68182 45.5687 10.0625ZM54.3269 14.1364C53.6962 14.1364 53.1522 13.9972 52.6948 13.7188C52.2402 13.4375 51.8894 13.0455 51.6422 12.5426C51.3979 12.0369 51.2757 11.4489 51.2757 10.7784C51.2757 10.108 51.3979 9.51705 51.6422 9.00568C51.8894 8.49148 52.2331 8.09091 52.6735 7.80398C53.1167 7.5142 53.6337 7.36932 54.2246 7.36932C54.5655 7.36932 54.9022 7.42614 55.2346 7.53977C55.5669 7.65341 55.8695 7.83807 56.1422 8.09375C56.415 8.34659 56.6323 8.68182 56.7942 9.09943C56.9561 9.51705 57.0371 10.0312 57.0371 10.642V11.0682H51.9917V10.1989H56.0144C56.0144 9.82955 55.9405 9.5 55.7928 9.21023C55.6479 8.92045 55.4405 8.69176 55.1706 8.52415C54.9036 8.35653 54.5882 8.27273 54.2246 8.27273C53.824 8.27273 53.4775 8.37216 53.1848 8.57102C52.8951 8.76705 52.6721 9.02273 52.5158 9.33807C52.3596 9.65341 52.2814 9.99148 52.2814 10.3523V10.9318C52.2814 11.4261 52.3667 11.8452 52.5371 12.1889C52.7104 12.5298 52.9505 12.7898 53.2573 12.9688C53.5641 13.1449 53.9206 13.233 54.3269 13.233C54.5911 13.233 54.8297 13.196 55.0428 13.1222C55.2587 13.0455 55.4448 12.9318 55.601 12.7812C55.7573 12.6278 55.878 12.4375 55.9632 12.2102L56.9348 12.483C56.8326 12.8125 56.6607 13.1023 56.4192 13.3523C56.1777 13.5994 55.8794 13.7926 55.5243 13.9318C55.1692 14.0682 54.7701 14.1364 54.3269 14.1364ZM62.0783 14V5.27273H65.1294C65.7374 5.27273 66.2388 5.37784 66.6337 5.58807C67.0286 5.79545 67.3226 6.07528 67.5158 6.42756C67.709 6.77699 67.8056 7.16477 67.8056 7.59091C67.8056 7.96591 67.7388 8.27557 67.6053 8.51989C67.4746 8.7642 67.3013 8.95739 67.0854 9.09943C66.8723 9.24148 66.6408 9.34659 66.3908 9.41477V9.5C66.6578 9.51705 66.9263 9.6108 67.1962 9.78125C67.4661 9.9517 67.6919 10.196 67.8738 10.5142C68.0556 10.8324 68.1465 11.2216 68.1465 11.6818C68.1465 12.1193 68.0471 12.5128 67.8482 12.8622C67.6493 13.2116 67.3354 13.4886 66.9064 13.6932C66.4775 13.8977 65.9192 14 65.2317 14H62.0783ZM63.1351 13.0625H65.2317C65.9221 13.0625 66.4121 12.929 66.7019 12.6619C66.9945 12.392 67.1408 12.0653 67.1408 11.6818C67.1408 11.3864 67.0655 11.1136 66.915 10.8636C66.7644 10.6108 66.5499 10.4091 66.2715 10.2585C65.9931 10.1051 65.6635 10.0284 65.2828 10.0284H63.1351V13.0625ZM63.1351 9.10795H65.0953C65.4135 9.10795 65.7005 9.04545 65.9561 8.92045C66.2147 8.79545 66.4192 8.61932 66.5698 8.39205C66.7232 8.16477 66.7999 7.89773 66.7999 7.59091C66.7999 7.20739 66.6664 6.8821 66.3993 6.61506C66.1323 6.34517 65.709 6.21023 65.1294 6.21023H63.1351V9.10795ZM72.4057 14.1364C71.8148 14.1364 71.2963 13.9957 70.8503 13.7145C70.4071 13.4332 70.0605 13.0398 69.8105 12.5341C69.5634 12.0284 69.4398 11.4375 69.4398 10.7614C69.4398 10.0795 69.5634 9.48437 69.8105 8.97585C70.0605 8.46733 70.4071 8.07244 70.8503 7.79119C71.2963 7.50994 71.8148 7.36932 72.4057 7.36932C72.9966 7.36932 73.5137 7.50994 73.9569 7.79119C74.4029 8.07244 74.7495 8.46733 74.9966 8.97585C75.2466 9.48437 75.3716 10.0795 75.3716 10.7614C75.3716 11.4375 75.2466 12.0284 74.9966 12.5341C74.7495 13.0398 74.4029 13.4332 73.9569 13.7145C73.5137 13.9957 72.9966 14.1364 72.4057 14.1364ZM72.4057 13.233C72.8546 13.233 73.2239 13.1179 73.5137 12.8878C73.8034 12.6577 74.0179 12.3551 74.1571 11.9801C74.2963 11.6051 74.3659 11.1989 74.3659 10.7614C74.3659 10.3239 74.2963 9.91619 74.1571 9.53835C74.0179 9.16051 73.8034 8.85511 73.5137 8.62216C73.2239 8.3892 72.8546 8.27273 72.4057 8.27273C71.9569 8.27273 71.5875 8.3892 71.2978 8.62216C71.008 8.85511 70.7935 9.16051 70.6543 9.53835C70.5151 9.91619 70.4455 10.3239 70.4455 10.7614C70.4455 11.1989 70.5151 11.6051 70.6543 11.9801C70.7935 12.3551 71.008 12.6577 71.2978 12.8878C71.5875 13.1179 71.9569 13.233 72.4057 13.233ZM79.5659 14.1364C78.975 14.1364 78.4565 13.9957 78.0105 13.7145C77.5673 13.4332 77.2207 13.0398 76.9707 12.5341C76.7235 12.0284 76.6 11.4375 76.6 10.7614C76.6 10.0795 76.7235 9.48437 76.9707 8.97585C77.2207 8.46733 77.5673 8.07244 78.0105 7.79119C78.4565 7.50994 78.975 7.36932 79.5659 7.36932C80.1568 7.36932 80.6738 7.50994 81.117 7.79119C81.563 8.07244 81.9096 8.46733 82.1568 8.97585C82.4068 9.48437 82.5318 10.0795 82.5318 10.7614C82.5318 11.4375 82.4068 12.0284 82.1568 12.5341C81.9096 13.0398 81.563 13.4332 81.117 13.7145C80.6738 13.9957 80.1568 14.1364 79.5659 14.1364ZM79.5659 13.233C80.0147 13.233 80.3841 13.1179 80.6738 12.8878C80.9636 12.6577 81.1781 12.3551 81.3173 11.9801C81.4565 11.6051 81.5261 11.1989 81.5261 10.7614C81.5261 10.3239 81.4565 9.91619 81.3173 9.53835C81.1781 9.16051 80.9636 8.85511 80.6738 8.62216C80.3841 8.3892 80.0147 8.27273 79.5659 8.27273C79.117 8.27273 78.7477 8.3892 78.4579 8.62216C78.1681 8.85511 77.9537 9.16051 77.8145 9.53835C77.6752 9.91619 77.6056 10.3239 77.6056 10.7614C77.6056 11.1989 77.6752 11.6051 77.8145 11.9801C77.9537 12.3551 78.1681 12.6577 78.4579 12.8878C78.7477 13.1179 79.117 13.233 79.5659 13.233ZM85.0044 11.6136L84.9874 10.3693H85.1919L88.0556 7.45455H89.2999L86.2488 10.5398H86.1635L85.0044 11.6136ZM84.0669 14V5.27273H85.0726V14H84.0669ZM88.226 14L85.6692 10.7614L86.3851 10.0625L89.5044 14H88.226ZM93.0691 14.1364C92.4384 14.1364 91.8944 13.9972 91.437 13.7188C90.9824 13.4375 90.6316 13.0455 90.3844 12.5426C90.1401 12.0369 90.0179 11.4489 90.0179 10.7784C90.0179 10.108 90.1401 9.51705 90.3844 9.00568C90.6316 8.49148 90.9753 8.09091 91.4157 7.80398C91.8588 7.5142 92.3759 7.36932 92.9668 7.36932C93.3077 7.36932 93.6444 7.42614 93.9767 7.53977C94.3091 7.65341 94.6117 7.83807 94.8844 8.09375C95.1571 8.34659 95.3745 8.68182 95.5364 9.09943C95.6983 9.51705 95.7793 10.0312 95.7793 10.642V11.0682H90.7338V10.1989H94.7566C94.7566 9.82955 94.6827 9.5 94.535 9.21023C94.3901 8.92045 94.1827 8.69176 93.9128 8.52415C93.6458 8.35653 93.3304 8.27273 92.9668 8.27273C92.5662 8.27273 92.2196 8.37216 91.927 8.57102C91.6373 8.76705 91.4142 9.02273 91.258 9.33807C91.1017 9.65341 91.0236 9.99148 91.0236 10.3523V10.9318C91.0236 11.4261 91.1088 11.8452 91.2793 12.1889C91.4526 12.5298 91.6926 12.7898 91.9995 12.9688C92.3063 13.1449 92.6628 13.233 93.0691 13.233C93.3333 13.233 93.5719 13.196 93.785 13.1222C94.0009 13.0455 94.187 12.9318 94.3432 12.7812C94.4995 12.6278 94.6202 12.4375 94.7054 12.2102L95.677 12.483C95.5748 12.8125 95.4029 13.1023 95.1614 13.3523C94.9199 13.5994 94.6216 13.7926 94.2665 13.9318C93.9114 14.0682 93.5123 14.1364 93.0691 14.1364ZM99.7807 14.1364C99.2353 14.1364 98.7537 13.9986 98.3361 13.723C97.9185 13.4446 97.5918 13.0526 97.356 12.5469C97.1202 12.0384 97.0023 11.4375 97.0023 10.7443C97.0023 10.0568 97.1202 9.46023 97.356 8.95455C97.5918 8.44886 97.9199 8.05824 98.3404 7.78267C98.7608 7.5071 99.2466 7.36932 99.7978 7.36932C100.224 7.36932 100.561 7.44034 100.808 7.58239C101.058 7.72159 101.248 7.88068 101.379 8.05966C101.512 8.2358 101.616 8.38068 101.69 8.49432H101.775V5.27273H102.781V14H101.809V12.9943H101.69C101.616 13.1136 101.511 13.2642 101.374 13.446C101.238 13.625 101.044 13.7855 100.791 13.9276C100.538 14.0668 100.201 14.1364 99.7807 14.1364ZM99.9171 13.233C100.32 13.233 100.661 13.1278 100.94 12.9176C101.218 12.7045 101.43 12.4105 101.575 12.0355C101.72 11.6577 101.792 11.2216 101.792 10.7273C101.792 10.2386 101.721 9.81108 101.579 9.4446C101.437 9.07528 101.227 8.78835 100.948 8.58381C100.67 8.37642 100.326 8.27273 99.9171 8.27273C99.4909 8.27273 99.1358 8.3821 98.8517 8.60085C98.5705 8.81676 98.3588 9.1108 98.2168 9.48295C98.0776 9.85227 98.008 10.267 98.008 10.7273C98.008 11.1932 98.079 11.6165 98.2211 11.9972C98.3659 12.375 98.579 12.6761 98.8603 12.9006C99.1444 13.1222 99.4966 13.233 99.9171 13.233Z" fill="#4C4C4C"/>
</svg>
