<svg width="120" height="20" viewBox="0 0 120 20" fill="none" xmlns="http://www.w3.org/2000/svg">
<rect y="6" width="16" height="8" rx="4" fill="#97CC55"/>
<path d="M28.4908 9.63636C28.4908 10.5568 28.3246 11.3523 27.9922 12.0227C27.6598 12.6932 27.2038 13.2102 26.6243 13.5739C26.0447 13.9375 25.3828 14.1193 24.6385 14.1193C23.8942 14.1193 23.2322 13.9375 22.6527 13.5739C22.0732 13.2102 21.6172 12.6932 21.2848 12.0227C20.9524 11.3523 20.7862 10.5568 20.7862 9.63636C20.7862 8.71591 20.9524 7.92045 21.2848 7.25C21.6172 6.57955 22.0732 6.0625 22.6527 5.69886C23.2322 5.33523 23.8942 5.15341 24.6385 5.15341C25.3828 5.15341 26.0447 5.33523 26.6243 5.69886C27.2038 6.0625 27.6598 6.57955 27.9922 7.25C28.3246 7.92045 28.4908 8.71591 28.4908 9.63636ZM27.468 9.63636C27.468 8.88068 27.3416 8.2429 27.0888 7.72301C26.8388 7.20312 26.4993 6.80966 26.0703 6.54261C25.6442 6.27557 25.1669 6.14205 24.6385 6.14205C24.1101 6.14205 23.6314 6.27557 23.2024 6.54261C22.7763 6.80966 22.4368 7.20312 22.1839 7.72301C21.9339 8.2429 21.8089 8.88068 21.8089 9.63636C21.8089 10.392 21.9339 11.0298 22.1839 11.5497C22.4368 12.0696 22.7763 12.4631 23.2024 12.7301C23.6314 12.9972 24.1101 13.1307 24.6385 13.1307C25.1669 13.1307 25.6442 12.9972 26.0703 12.7301C26.4993 12.4631 26.8388 12.0696 27.0888 11.5497C27.3416 11.0298 27.468 10.392 27.468 9.63636ZM31.1371 10.0625V14H30.1314V7.45455H31.103V8.47727H31.1882C31.3416 8.14489 31.5746 7.87784 31.8871 7.67614C32.1996 7.47159 32.603 7.36932 33.0973 7.36932C33.5405 7.36932 33.9283 7.46023 34.2607 7.64205C34.593 7.82102 34.8516 8.09375 35.0362 8.46023C35.2209 8.82386 35.3132 9.28409 35.3132 9.84091V14H34.3075V9.90909C34.3075 9.39489 34.174 8.99432 33.907 8.70739C33.6399 8.41761 33.2734 8.27273 32.8075 8.27273C32.4865 8.27273 32.1996 8.34233 31.9467 8.48153C31.6967 8.62074 31.4993 8.82386 31.3544 9.09091C31.2095 9.35795 31.1371 9.68182 31.1371 10.0625ZM38.1566 5.27273V14H37.1509V5.27273H38.1566ZM39.9986 14V7.45455H41.0043V14H39.9986ZM40.5099 6.36364C40.3139 6.36364 40.1449 6.29688 40.0028 6.16335C39.8636 6.02983 39.794 5.86932 39.794 5.68182C39.794 5.49432 39.8636 5.33381 40.0028 5.20028C40.1449 5.06676 40.3139 5 40.5099 5C40.706 5 40.8736 5.06676 41.0128 5.20028C41.1548 5.33381 41.2259 5.49432 41.2259 5.68182C41.2259 5.86932 41.1548 6.02983 41.0128 6.16335C40.8736 6.29688 40.706 6.36364 40.5099 6.36364ZM43.8519 10.0625V14H42.8462V7.45455H43.8178V8.47727H43.9031C44.0565 8.14489 44.2894 7.87784 44.6019 7.67614C44.9144 7.47159 45.3178 7.36932 45.8121 7.36932C46.2553 7.36932 46.6431 7.46023 46.9755 7.64205C47.3079 7.82102 47.5664 8.09375 47.7511 8.46023C47.9357 8.82386 48.0281 9.28409 48.0281 9.84091V14H47.0224V9.90909C47.0224 9.39489 46.8888 8.99432 46.6218 8.70739C46.3548 8.41761 45.9883 8.27273 45.5224 8.27273C45.2013 8.27273 44.9144 8.34233 44.6616 8.48153C44.4116 8.62074 44.2141 8.82386 44.0692 9.09091C43.9244 9.35795 43.8519 9.68182 43.8519 10.0625ZM52.6101 14.1364C51.9794 14.1364 51.4354 13.9972 50.978 13.7188C50.5234 13.4375 50.1726 13.0455 49.9254 12.5426C49.6811 12.0369 49.5589 11.4489 49.5589 10.7784C49.5589 10.108 49.6811 9.51705 49.9254 9.00568C50.1726 8.49148 50.5163 8.09091 50.9567 7.80398C51.3999 7.5142 51.9169 7.36932 52.5078 7.36932C52.8487 7.36932 53.1854 7.42614 53.5178 7.53977C53.8501 7.65341 54.1527 7.83807 54.4254 8.09375C54.6982 8.34659 54.9155 8.68182 55.0774 9.09943C55.2393 9.51705 55.3203 10.0312 55.3203 10.642V11.0682H50.2749V10.1989H54.2976C54.2976 9.82955 54.2237 9.5 54.076 9.21023C53.9311 8.92045 53.7237 8.69176 53.4538 8.52415C53.1868 8.35653 52.8714 8.27273 52.5078 8.27273C52.1072 8.27273 51.7607 8.37216 51.468 8.57102C51.1783 8.76705 50.9553 9.02273 50.799 9.33807C50.6428 9.65341 50.5646 9.99148 50.5646 10.3523V10.9318C50.5646 11.4261 50.6499 11.8452 50.8203 12.1889C50.9936 12.5298 51.2337 12.7898 51.5405 12.9688C51.8473 13.1449 52.2038 13.233 52.6101 13.233C52.8743 13.233 53.1129 13.196 53.326 13.1222C53.5419 13.0455 53.728 12.9318 53.8842 12.7812C54.0405 12.6278 54.1612 12.4375 54.2464 12.2102L55.218 12.483C55.1158 12.8125 54.9439 13.1023 54.7024 13.3523C54.4609 13.5994 54.1626 13.7926 53.8075 13.9318C53.4524 14.0682 53.0533 14.1364 52.6101 14.1364Z" fill="#4C4C4C"/>
</svg>
