<svg width="120" height="20" viewBox="0 0 120 20" fill="none" xmlns="http://www.w3.org/2000/svg">
<rect y="6" width="16" height="8" rx="4" fill="#5AA9E8"/>
<path d="M28.7915 9.63636C28.7915 10.5568 28.6254 11.3523 28.293 12.0227C27.9606 12.6932 27.5046 13.2102 26.9251 13.5739C26.3455 13.9375 25.6836 14.1193 24.9393 14.1193C24.195 14.1193 23.533 13.9375 22.9535 13.5739C22.3739 13.2102 21.918 12.6932 21.5856 12.0227C21.2532 11.3523 21.087 10.5568 21.087 9.63636C21.087 8.71591 21.2532 7.92045 21.5856 7.25C21.918 6.57955 22.3739 6.0625 22.9535 5.69886C23.533 5.33523 24.195 5.15341 24.9393 5.15341C25.6836 5.15341 26.3455 5.33523 26.9251 5.69886C27.5046 6.0625 27.9606 6.57955 28.293 7.25C28.6254 7.92045 28.7915 8.71591 28.7915 9.63636ZM27.7688 9.63636C27.7688 8.88068 27.6424 8.2429 27.3896 7.72301C27.1396 7.20312 26.8001 6.80966 26.3711 6.54261C25.945 6.27557 25.4677 6.14205 24.9393 6.14205C24.4109 6.14205 23.9322 6.27557 23.5032 6.54261C23.0771 6.80966 22.7376 7.20312 22.4847 7.72301C22.2347 8.2429 22.1097 8.88068 22.1097 9.63636C22.1097 10.392 22.2347 11.0298 22.4847 11.5497C22.7376 12.0696 23.0771 12.4631 23.5032 12.7301C23.9322 12.9972 24.4109 13.1307 24.9393 13.1307C25.4677 13.1307 25.945 12.9972 26.3711 12.7301C26.8001 12.4631 27.1396 12.0696 27.3896 11.5497C27.6424 11.0298 27.7688 10.392 27.7688 9.63636ZM31.4379 10.0625V14H30.4322V7.45455H31.4038V8.47727H31.489C31.6424 8.14489 31.8754 7.87784 32.1879 7.67614C32.5004 7.47159 32.9038 7.36932 33.3981 7.36932C33.8413 7.36932 34.229 7.46023 34.5614 7.64205C34.8938 7.82102 35.1523 8.09375 35.337 8.46023C35.5217 8.82386 35.614 9.28409 35.614 9.84091V14H34.6083V9.90909C34.6083 9.39489 34.4748 8.99432 34.2077 8.70739C33.9407 8.41761 33.5742 8.27273 33.1083 8.27273C32.7873 8.27273 32.5004 8.34233 32.2475 8.48153C31.9975 8.62074 31.8001 8.82386 31.6552 9.09091C31.5103 9.35795 31.4379 9.68182 31.4379 10.0625ZM38.4574 5.27273V14H37.4517V5.27273H38.4574ZM40.2994 14V7.45455H41.305V14H40.2994ZM40.8107 6.36364C40.6147 6.36364 40.4457 6.29688 40.3036 6.16335C40.1644 6.02983 40.0948 5.86932 40.0948 5.68182C40.0948 5.49432 40.1644 5.33381 40.3036 5.20028C40.4457 5.06676 40.6147 5 40.8107 5C41.0067 5 41.1744 5.06676 41.3136 5.20028C41.4556 5.33381 41.5266 5.49432 41.5266 5.68182C41.5266 5.86932 41.4556 6.02983 41.3136 6.16335C41.1744 6.29688 41.0067 6.36364 40.8107 6.36364ZM44.1527 10.0625V14H43.147V7.45455H44.1186V8.47727H44.2038C44.3572 8.14489 44.5902 7.87784 44.9027 7.67614C45.2152 7.47159 45.6186 7.36932 46.1129 7.36932C46.5561 7.36932 46.9439 7.46023 47.2763 7.64205C47.6087 7.82102 47.8672 8.09375 48.0518 8.46023C48.2365 8.82386 48.3288 9.28409 48.3288 9.84091V14H47.3232V9.90909C47.3232 9.39489 47.1896 8.99432 46.9226 8.70739C46.6555 8.41761 46.2891 8.27273 45.8232 8.27273C45.5021 8.27273 45.2152 8.34233 44.9624 8.48153C44.7124 8.62074 44.5149 8.82386 44.37 9.09091C44.2251 9.35795 44.1527 9.68182 44.1527 10.0625ZM52.9109 14.1364C52.2802 14.1364 51.7362 13.9972 51.2788 13.7188C50.8242 13.4375 50.4734 13.0455 50.2262 12.5426C49.9819 12.0369 49.8597 11.4489 49.8597 10.7784C49.8597 10.108 49.9819 9.51705 50.2262 9.00568C50.4734 8.49148 50.8171 8.09091 51.2575 7.80398C51.7006 7.5142 52.2177 7.36932 52.8086 7.36932C53.1495 7.36932 53.4862 7.42614 53.8185 7.53977C54.1509 7.65341 54.4535 7.83807 54.7262 8.09375C54.9989 8.34659 55.2163 8.68182 55.3782 9.09943C55.5401 9.51705 55.6211 10.0312 55.6211 10.642V11.0682H50.5756V10.1989H54.5984C54.5984 9.82955 54.5245 9.5 54.3768 9.21023C54.2319 8.92045 54.0245 8.69176 53.7546 8.52415C53.4876 8.35653 53.1722 8.27273 52.8086 8.27273C52.408 8.27273 52.0614 8.37216 51.7688 8.57102C51.479 8.76705 51.256 9.02273 51.0998 9.33807C50.9435 9.65341 50.8654 9.99148 50.8654 10.3523V10.9318C50.8654 11.4261 50.9506 11.8452 51.1211 12.1889C51.2944 12.5298 51.5344 12.7898 51.8413 12.9688C52.1481 13.1449 52.5046 13.233 52.9109 13.233C53.1751 13.233 53.4137 13.196 53.6268 13.1222C53.8427 13.0455 54.0288 12.9318 54.185 12.7812C54.3413 12.6278 54.462 12.4375 54.5472 12.2102L55.5188 12.483C55.4165 12.8125 55.2447 13.1023 55.0032 13.3523C54.7617 13.5994 54.4634 13.7926 54.1083 13.9318C53.7532 14.0682 53.354 14.1364 52.9109 14.1364ZM59.7077 13.4034V7.77841H60.6623V13.4034H59.7077ZM57.3725 11.0682V10.1136H62.9975V11.0682H57.3725ZM72.5611 9.63636C72.5611 10.5568 72.3949 11.3523 72.0625 12.0227C71.7301 12.6932 71.2741 13.2102 70.6946 13.5739C70.1151 13.9375 69.4531 14.1193 68.7088 14.1193C67.9645 14.1193 67.3026 13.9375 66.723 13.5739C66.1435 13.2102 65.6875 12.6932 65.3551 12.0227C65.0227 11.3523 64.8565 10.5568 64.8565 9.63636C64.8565 8.71591 65.0227 7.92045 65.3551 7.25C65.6875 6.57955 66.1435 6.0625 66.723 5.69886C67.3026 5.33523 67.9645 5.15341 68.7088 5.15341C69.4531 5.15341 70.1151 5.33523 70.6946 5.69886C71.2741 6.0625 71.7301 6.57955 72.0625 7.25C72.3949 7.92045 72.5611 8.71591 72.5611 9.63636ZM71.5384 9.63636C71.5384 8.88068 71.4119 8.2429 71.1591 7.72301C70.9091 7.20312 70.5696 6.80966 70.1406 6.54261C69.7145 6.27557 69.2372 6.14205 68.7088 6.14205C68.1804 6.14205 67.7017 6.27557 67.2727 6.54261C66.8466 6.80966 66.5071 7.20312 66.2543 7.72301C66.0043 8.2429 65.8793 8.88068 65.8793 9.63636C65.8793 10.392 66.0043 11.0298 66.2543 11.5497C66.5071 12.0696 66.8466 12.4631 67.2727 12.7301C67.7017 12.9972 68.1804 13.1307 68.7088 13.1307C69.2372 13.1307 69.7145 12.9972 70.1406 12.7301C70.5696 12.4631 70.9091 12.0696 71.1591 11.5497C71.4119 11.0298 71.5384 10.392 71.5384 9.63636ZM77.1165 7.45455V8.30682H73.5881V7.45455H77.1165ZM74.6449 14V6.55114C74.6449 6.17614 74.733 5.86364 74.9091 5.61364C75.0852 5.36364 75.3139 5.17614 75.5952 5.05114C75.8764 4.92614 76.1733 4.86364 76.4858 4.86364C76.733 4.86364 76.9347 4.88352 77.0909 4.9233C77.2472 4.96307 77.3636 5 77.4403 5.03409L77.1506 5.90341C77.0994 5.88636 77.0284 5.86506 76.9375 5.83949C76.8494 5.81392 76.733 5.80114 76.5881 5.80114C76.2557 5.80114 76.0156 5.88494 75.8679 6.05256C75.723 6.22017 75.6506 6.46591 75.6506 6.78977V14H74.6449ZM81.4407 7.45455V8.30682H77.9123V7.45455H81.4407ZM78.9691 14V6.55114C78.9691 6.17614 79.0572 5.86364 79.2333 5.61364C79.4094 5.36364 79.6381 5.17614 79.9194 5.05114C80.2006 4.92614 80.4975 4.86364 80.81 4.86364C81.0572 4.86364 81.2589 4.88352 81.4151 4.9233C81.5714 4.96307 81.6879 5 81.7646 5.03409L81.4748 5.90341C81.4237 5.88636 81.3526 5.86506 81.2617 5.83949C81.1737 5.81392 81.0572 5.80114 80.9123 5.80114C80.5799 5.80114 80.3398 5.88494 80.1921 6.05256C80.0472 6.22017 79.9748 6.46591 79.9748 6.78977V14H78.9691ZM83.8558 5.27273V14H82.8501V5.27273H83.8558ZM85.6978 14V7.45455H86.7035V14H85.6978ZM86.2092 6.36364C86.0131 6.36364 85.8441 6.29688 85.7021 6.16335C85.5629 6.02983 85.4933 5.86932 85.4933 5.68182C85.4933 5.49432 85.5629 5.33381 85.7021 5.20028C85.8441 5.06676 86.0131 5 86.2092 5C86.4052 5 86.5728 5.06676 86.712 5.20028C86.854 5.33381 86.9251 5.49432 86.9251 5.68182C86.9251 5.86932 86.854 6.02983 86.712 6.16335C86.5728 6.29688 86.4052 6.36364 86.2092 6.36364ZM89.5511 10.0625V14H88.5455V7.45455H89.517V8.47727H89.6023C89.7557 8.14489 89.9886 7.87784 90.3011 7.67614C90.6136 7.47159 91.017 7.36932 91.5114 7.36932C91.9545 7.36932 92.3423 7.46023 92.6747 7.64205C93.0071 7.82102 93.2656 8.09375 93.4503 8.46023C93.6349 8.82386 93.7273 9.28409 93.7273 9.84091V14H92.7216V9.90909C92.7216 9.39489 92.5881 8.99432 92.321 8.70739C92.054 8.41761 91.6875 8.27273 91.2216 8.27273C90.9006 8.27273 90.6136 8.34233 90.3608 8.48153C90.1108 8.62074 89.9134 8.82386 89.7685 9.09091C89.6236 9.35795 89.5511 9.68182 89.5511 10.0625ZM98.3093 14.1364C97.6786 14.1364 97.1346 13.9972 96.6772 13.7188C96.2227 13.4375 95.8718 13.0455 95.6246 12.5426C95.3803 12.0369 95.2582 11.4489 95.2582 10.7784C95.2582 10.108 95.3803 9.51705 95.6246 9.00568C95.8718 8.49148 96.2156 8.09091 96.6559 7.80398C97.0991 7.5142 97.6161 7.36932 98.207 7.36932C98.5479 7.36932 98.8846 7.42614 99.217 7.53977C99.5494 7.65341 99.8519 7.83807 100.125 8.09375C100.397 8.34659 100.615 8.68182 100.777 9.09943C100.939 9.51705 101.02 10.0312 101.02 10.642V11.0682H95.9741V10.1989H99.9968C99.9968 9.82955 99.9229 9.5 99.7752 9.21023C99.6303 8.92045 99.4229 8.69176 99.1531 8.52415C98.886 8.35653 98.5707 8.27273 98.207 8.27273C97.8065 8.27273 97.4599 8.37216 97.1673 8.57102C96.8775 8.76705 96.6545 9.02273 96.4982 9.33807C96.342 9.65341 96.2638 9.99148 96.2638 10.3523V10.9318C96.2638 11.4261 96.3491 11.8452 96.5195 12.1889C96.6928 12.5298 96.9329 12.7898 97.2397 12.9688C97.5465 13.1449 97.9031 13.233 98.3093 13.233C98.5735 13.233 98.8121 13.196 99.0252 13.1222C99.2411 13.0455 99.4272 12.9318 99.5835 12.7812C99.7397 12.6278 99.8604 12.4375 99.9457 12.2102L100.917 12.483C100.815 12.8125 100.643 13.1023 100.402 13.3523C100.16 13.5994 99.8619 13.7926 99.5067 13.9318C99.1516 14.0682 98.7525 14.1364 98.3093 14.1364Z" fill="#4C4C4C"/>
</svg>
