<svg width="120" height="20" viewBox="0 0 120 20" fill="none" xmlns="http://www.w3.org/2000/svg">
<rect y="6" width="16" height="8" rx="4" fill="#355E80"/>
<path d="M28.8931 9.63636C28.8931 10.5568 28.7269 11.3523 28.3945 12.0227C28.0621 12.6932 27.6062 13.2102 27.0266 13.5739C26.4471 13.9375 25.7852 14.1193 25.0408 14.1193C24.2965 14.1193 23.6346 13.9375 23.055 13.5739C22.4755 13.2102 22.0195 12.6932 21.6871 12.0227C21.3548 11.3523 21.1886 10.5568 21.1886 9.63636C21.1886 8.71591 21.3548 7.92045 21.6871 7.25C22.0195 6.57955 22.4755 6.0625 23.055 5.69886C23.6346 5.33523 24.2965 5.15341 25.0408 5.15341C25.7852 5.15341 26.4471 5.33523 27.0266 5.69886C27.6062 6.0625 28.0621 6.57955 28.3945 7.25C28.7269 7.92045 28.8931 8.71591 28.8931 9.63636ZM27.8704 9.63636C27.8704 8.88068 27.744 8.2429 27.4911 7.72301C27.2411 7.20312 26.9016 6.80966 26.4727 6.54261C26.0465 6.27557 25.5692 6.14205 25.0408 6.14205C24.5124 6.14205 24.0337 6.27557 23.6048 6.54261C23.1786 6.80966 22.8391 7.20312 22.5863 7.72301C22.3363 8.2429 22.2113 8.88068 22.2113 9.63636C22.2113 10.392 22.3363 11.0298 22.5863 11.5497C22.8391 12.0696 23.1786 12.4631 23.6048 12.7301C24.0337 12.9972 24.5124 13.1307 25.0408 13.1307C25.5692 13.1307 26.0465 12.9972 26.4727 12.7301C26.9016 12.4631 27.2411 12.0696 27.4911 11.5497C27.744 11.0298 27.8704 10.392 27.8704 9.63636ZM31.5394 10.0625V14H30.5337V7.45455H31.5053V8.47727H31.5906C31.744 8.14489 31.9769 7.87784 32.2894 7.67614C32.6019 7.47159 33.0053 7.36932 33.4996 7.36932C33.9428 7.36932 34.3306 7.46023 34.663 7.64205C34.9954 7.82102 35.2539 8.09375 35.4386 8.46023C35.6232 8.82386 35.7156 9.28409 35.7156 9.84091V14H34.7099V9.90909C34.7099 9.39489 34.5763 8.99432 34.3093 8.70739C34.0423 8.41761 33.6758 8.27273 33.2099 8.27273C32.8888 8.27273 32.6019 8.34233 32.3491 8.48153C32.0991 8.62074 31.9016 8.82386 31.7567 9.09091C31.6119 9.35795 31.5394 9.68182 31.5394 10.0625ZM38.5589 5.27273V14H37.5533V5.27273H38.5589ZM40.4009 14V7.45455H41.4066V14H40.4009ZM40.9123 6.36364C40.7163 6.36364 40.5472 6.29688 40.4052 6.16335C40.266 6.02983 40.1964 5.86932 40.1964 5.68182C40.1964 5.49432 40.266 5.33381 40.4052 5.20028C40.5472 5.06676 40.7163 5 40.9123 5C41.1083 5 41.2759 5.06676 41.4151 5.20028C41.5572 5.33381 41.6282 5.49432 41.6282 5.68182C41.6282 5.86932 41.5572 6.02983 41.4151 6.16335C41.2759 6.29688 41.1083 6.36364 40.9123 6.36364ZM44.2543 10.0625V14H43.2486V7.45455H44.2202V8.47727H44.3054C44.4588 8.14489 44.6918 7.87784 45.0043 7.67614C45.3168 7.47159 45.7202 7.36932 46.2145 7.36932C46.6577 7.36932 47.0455 7.46023 47.3778 7.64205C47.7102 7.82102 47.9688 8.09375 48.1534 8.46023C48.3381 8.82386 48.4304 9.28409 48.4304 9.84091V14H47.4247V9.90909C47.4247 9.39489 47.2912 8.99432 47.0241 8.70739C46.7571 8.41761 46.3906 8.27273 45.9247 8.27273C45.6037 8.27273 45.3168 8.34233 45.0639 8.48153C44.8139 8.62074 44.6165 8.82386 44.4716 9.09091C44.3267 9.35795 44.2543 9.68182 44.2543 10.0625ZM53.0124 14.1364C52.3817 14.1364 51.8377 13.9972 51.3803 13.7188C50.9258 13.4375 50.5749 13.0455 50.3278 12.5426C50.0835 12.0369 49.9613 11.4489 49.9613 10.7784C49.9613 10.108 50.0835 9.51705 50.3278 9.00568C50.5749 8.49148 50.9187 8.09091 51.359 7.80398C51.8022 7.5142 52.3192 7.36932 52.9102 7.36932C53.2511 7.36932 53.5877 7.42614 53.9201 7.53977C54.2525 7.65341 54.555 7.83807 54.8278 8.09375C55.1005 8.34659 55.3178 8.68182 55.4798 9.09943C55.6417 9.51705 55.7227 10.0312 55.7227 10.642V11.0682H50.6772V10.1989H54.6999C54.6999 9.82955 54.6261 9.5 54.4783 9.21023C54.3335 8.92045 54.1261 8.69176 53.8562 8.52415C53.5891 8.35653 53.2738 8.27273 52.9102 8.27273C52.5096 8.27273 52.163 8.37216 51.8704 8.57102C51.5806 8.76705 51.3576 9.02273 51.2013 9.33807C51.0451 9.65341 50.967 9.99148 50.967 10.3523V10.9318C50.967 11.4261 51.0522 11.8452 51.2227 12.1889C51.396 12.5298 51.636 12.7898 51.9428 12.9688C52.2496 13.1449 52.6062 13.233 53.0124 13.233C53.2766 13.233 53.5153 13.196 53.7283 13.1222C53.9442 13.0455 54.1303 12.9318 54.2866 12.7812C54.4428 12.6278 54.5636 12.4375 54.6488 12.2102L55.6204 12.483C55.5181 12.8125 55.3462 13.1023 55.1048 13.3523C54.8633 13.5994 54.565 13.7926 54.2099 13.9318C53.8548 14.0682 53.4556 14.1364 53.0124 14.1364ZM60.7638 14V5.27273H63.815C64.4229 5.27273 64.9244 5.37784 65.3192 5.58807C65.7141 5.79545 66.0082 6.07528 66.2013 6.42756C66.3945 6.77699 66.4911 7.16477 66.4911 7.59091C66.4911 7.96591 66.4244 8.27557 66.2908 8.51989C66.1602 8.7642 65.9869 8.95739 65.771 9.09943C65.5579 9.24148 65.3263 9.34659 65.0763 9.41477V9.5C65.3434 9.51705 65.6119 9.6108 65.8817 9.78125C66.1516 9.9517 66.3775 10.196 66.5593 10.5142C66.7411 10.8324 66.832 11.2216 66.832 11.6818C66.832 12.1193 66.7326 12.5128 66.5337 12.8622C66.3349 13.2116 66.021 13.4886 65.592 13.6932C65.163 13.8977 64.6048 14 63.9173 14H60.7638ZM61.8207 13.0625H63.9173C64.6076 13.0625 65.0977 12.929 65.3874 12.6619C65.68 12.392 65.8263 12.0653 65.8263 11.6818C65.8263 11.3864 65.7511 11.1136 65.6005 10.8636C65.4499 10.6108 65.2354 10.4091 64.957 10.2585C64.6786 10.1051 64.3491 10.0284 63.9684 10.0284H61.8207V13.0625ZM61.8207 9.10795H63.7809C64.0991 9.10795 64.386 9.04545 64.6417 8.92045C64.9002 8.79545 65.1048 8.61932 65.2553 8.39205C65.4087 8.16477 65.4854 7.89773 65.4854 7.59091C65.4854 7.20739 65.3519 6.8821 65.0849 6.61506C64.8178 6.34517 64.3945 6.21023 63.815 6.21023H61.8207V9.10795ZM71.0913 14.1364C70.5004 14.1364 69.9819 13.9957 69.5359 13.7145C69.0927 13.4332 68.7461 13.0398 68.4961 12.5341C68.2489 12.0284 68.1254 11.4375 68.1254 10.7614C68.1254 10.0795 68.2489 9.48437 68.4961 8.97585C68.7461 8.46733 69.0927 8.07244 69.5359 7.79119C69.9819 7.50994 70.5004 7.36932 71.0913 7.36932C71.6822 7.36932 72.1992 7.50994 72.6424 7.79119C73.0884 8.07244 73.435 8.46733 73.6822 8.97585C73.9322 9.48437 74.0572 10.0795 74.0572 10.7614C74.0572 11.4375 73.9322 12.0284 73.6822 12.5341C73.435 13.0398 73.0884 13.4332 72.6424 13.7145C72.1992 13.9957 71.6822 14.1364 71.0913 14.1364ZM71.0913 13.233C71.5401 13.233 71.9094 13.1179 72.1992 12.8878C72.489 12.6577 72.7035 12.3551 72.8427 11.9801C72.9819 11.6051 73.0515 11.1989 73.0515 10.7614C73.0515 10.3239 72.9819 9.91619 72.8427 9.53835C72.7035 9.16051 72.489 8.85511 72.1992 8.62216C71.9094 8.3892 71.5401 8.27273 71.0913 8.27273C70.6424 8.27273 70.2731 8.3892 69.9833 8.62216C69.6935 8.85511 69.479 9.16051 69.3398 9.53835C69.2006 9.91619 69.131 10.3239 69.131 10.7614C69.131 11.1989 69.2006 11.6051 69.3398 11.9801C69.479 12.3551 69.6935 12.6577 69.9833 12.8878C70.2731 13.1179 70.6424 13.233 71.0913 13.233ZM78.2514 14.1364C77.6605 14.1364 77.142 13.9957 76.696 13.7145C76.2528 13.4332 75.9062 13.0398 75.6562 12.5341C75.4091 12.0284 75.2855 11.4375 75.2855 10.7614C75.2855 10.0795 75.4091 9.48437 75.6562 8.97585C75.9062 8.46733 76.2528 8.07244 76.696 7.79119C77.142 7.50994 77.6605 7.36932 78.2514 7.36932C78.8423 7.36932 79.3594 7.50994 79.8026 7.79119C80.2486 8.07244 80.5952 8.46733 80.8423 8.97585C81.0923 9.48437 81.2173 10.0795 81.2173 10.7614C81.2173 11.4375 81.0923 12.0284 80.8423 12.5341C80.5952 13.0398 80.2486 13.4332 79.8026 13.7145C79.3594 13.9957 78.8423 14.1364 78.2514 14.1364ZM78.2514 13.233C78.7003 13.233 79.0696 13.1179 79.3594 12.8878C79.6491 12.6577 79.8636 12.3551 80.0028 11.9801C80.142 11.6051 80.2116 11.1989 80.2116 10.7614C80.2116 10.3239 80.142 9.91619 80.0028 9.53835C79.8636 9.16051 79.6491 8.85511 79.3594 8.62216C79.0696 8.3892 78.7003 8.27273 78.2514 8.27273C77.8026 8.27273 77.4332 8.3892 77.1435 8.62216C76.8537 8.85511 76.6392 9.16051 76.5 9.53835C76.3608 9.91619 76.2912 10.3239 76.2912 10.7614C76.2912 11.1989 76.3608 11.6051 76.5 11.9801C76.6392 12.3551 76.8537 12.6577 77.1435 12.8878C77.4332 13.1179 77.8026 13.233 78.2514 13.233ZM83.69 11.6136L83.6729 10.3693H83.8775L86.7411 7.45455H87.9854L84.9343 10.5398H84.8491L83.69 11.6136ZM82.7525 14V5.27273H83.7582V14H82.7525ZM86.9116 14L84.3548 10.7614L85.0707 10.0625L88.19 14H86.9116ZM91.7546 14.1364C91.1239 14.1364 90.5799 13.9972 90.1225 13.7188C89.668 13.4375 89.3171 13.0455 89.07 12.5426C88.8256 12.0369 88.7035 11.4489 88.7035 10.7784C88.7035 10.108 88.8256 9.51705 89.07 9.00568C89.3171 8.49148 89.6609 8.09091 90.1012 7.80398C90.5444 7.5142 91.0614 7.36932 91.6523 7.36932C91.9933 7.36932 92.3299 7.42614 92.6623 7.53977C92.9947 7.65341 93.2972 7.83807 93.57 8.09375C93.8427 8.34659 94.06 8.68182 94.2219 9.09943C94.3839 9.51705 94.4648 10.0312 94.4648 10.642V11.0682H89.4194V10.1989H93.4421C93.4421 9.82955 93.3683 9.5 93.2205 9.21023C93.0756 8.92045 92.8683 8.69176 92.5984 8.52415C92.3313 8.35653 92.016 8.27273 91.6523 8.27273C91.2518 8.27273 90.9052 8.37216 90.6126 8.57102C90.3228 8.76705 90.0998 9.02273 89.9435 9.33807C89.7873 9.65341 89.7092 9.99148 89.7092 10.3523V10.9318C89.7092 11.4261 89.7944 11.8452 89.9648 12.1889C90.1381 12.5298 90.3782 12.7898 90.685 12.9688C90.9918 13.1449 91.3484 13.233 91.7546 13.233C92.0188 13.233 92.2575 13.196 92.4705 13.1222C92.6864 13.0455 92.8725 12.9318 93.0288 12.7812C93.185 12.6278 93.3058 12.4375 93.391 12.2102L94.3626 12.483C94.2603 12.8125 94.0884 13.1023 93.8469 13.3523C93.6055 13.5994 93.3072 13.7926 92.9521 13.9318C92.5969 14.0682 92.1978 14.1364 91.7546 14.1364ZM98.4663 14.1364C97.9208 14.1364 97.4393 13.9986 97.0217 13.723C96.604 13.4446 96.2773 13.0526 96.0415 12.5469C95.8058 12.0384 95.6879 11.4375 95.6879 10.7443C95.6879 10.0568 95.8058 9.46023 96.0415 8.95455C96.2773 8.44886 96.6055 8.05824 97.0259 7.78267C97.4464 7.5071 97.9322 7.36932 98.4833 7.36932C98.9094 7.36932 99.2461 7.44034 99.4933 7.58239C99.7433 7.72159 99.9336 7.88068 100.064 8.05966C100.198 8.2358 100.301 8.38068 100.375 8.49432H100.461V5.27273H101.466V14H100.495V12.9943H100.375C100.301 13.1136 100.196 13.2642 100.06 13.446C99.9237 13.625 99.729 13.7855 99.4762 13.9276C99.2234 14.0668 98.8867 14.1364 98.4663 14.1364ZM98.6026 13.233C99.006 13.233 99.3469 13.1278 99.6254 12.9176C99.9038 12.7045 100.115 12.4105 100.26 12.0355C100.405 11.6577 100.478 11.2216 100.478 10.7273C100.478 10.2386 100.407 9.81108 100.265 9.4446C100.123 9.07528 99.9123 8.78835 99.6339 8.58381C99.3555 8.37642 99.0117 8.27273 98.6026 8.27273C98.1765 8.27273 97.8214 8.3821 97.5373 8.60085C97.256 8.81676 97.0444 9.1108 96.9023 9.48295C96.7631 9.85227 96.6935 10.267 96.6935 10.7273C96.6935 11.1932 96.7646 11.6165 96.9066 11.9972C97.0515 12.375 97.2646 12.6761 97.5458 12.9006C97.8299 13.1222 98.1822 13.233 98.6026 13.233Z" fill="#4C4C4C"/>
</svg>
