<svg width="92" height="16" viewBox="0 0 92 16" fill="none" xmlns="http://www.w3.org/2000/svg">
<rect y="4" width="16" height="8" rx="4" fill="#757575"/>
<path d="M29.1475 6.63778C29.1096 6.30161 28.9533 6.04119 28.6787 5.85653C28.4041 5.66951 28.0584 5.57599 27.6418 5.57599C27.3435 5.57599 27.0854 5.62334 26.8676 5.71804C26.6498 5.81037 26.4806 5.93821 26.3598 6.10156C26.2414 6.26255 26.1823 6.44602 26.1823 6.65199C26.1823 6.82481 26.2225 6.97396 26.303 7.09943C26.3859 7.22491 26.4936 7.33026 26.6262 7.41548C26.7611 7.49834 26.9055 7.56818 27.0594 7.625C27.2133 7.67945 27.3612 7.72443 27.5033 7.75994L28.2135 7.9446C28.4455 8.00142 28.6834 8.07836 28.9273 8.17543C29.1711 8.27249 29.3972 8.40033 29.6056 8.55895C29.8139 8.71757 29.982 8.91406 30.1098 9.14844C30.24 9.38281 30.3051 9.66335 30.3051 9.99006C30.3051 10.402 30.1986 10.7678 29.9855 11.0874C29.7748 11.407 29.4682 11.6591 29.0658 11.8438C28.6657 12.0284 28.1816 12.1207 27.6134 12.1207C27.0689 12.1207 26.5977 12.0343 26.2 11.8615C25.8023 11.6887 25.491 11.4437 25.2661 11.1264C25.0412 10.8068 24.9169 10.428 24.8932 9.99006H25.9941C26.0154 10.2528 26.1006 10.4718 26.2497 10.647C26.4012 10.8198 26.5942 10.9489 26.8286 11.0341C27.0653 11.117 27.3245 11.1584 27.6063 11.1584C27.9164 11.1584 28.1922 11.1098 28.4337 11.0128C28.6775 10.9134 28.8693 10.776 29.009 10.6009C29.1486 10.4233 29.2185 10.2161 29.2185 9.9794C29.2185 9.76397 29.1569 9.58759 29.0338 9.45028C28.9131 9.31297 28.7486 9.19934 28.5402 9.10938C28.3343 9.01941 28.1011 8.9401 27.8406 8.87145L26.9813 8.63707C26.3989 8.47846 25.9372 8.24527 25.5963 7.9375C25.2578 7.62973 25.0885 7.22254 25.0885 6.71591C25.0885 6.29687 25.2021 5.93111 25.4294 5.61861C25.6567 5.30611 25.9645 5.06345 26.3527 4.89062C26.741 4.71544 27.1789 4.62784 27.6666 4.62784C28.1591 4.62784 28.5935 4.71425 28.9699 4.88707C29.3487 5.0599 29.647 5.29782 29.8648 5.60085C30.0826 5.90151 30.1962 6.24716 30.2057 6.63778H29.1475ZM33.882 12.1101C33.3446 12.1101 32.8818 11.9953 32.4935 11.7656C32.1076 11.5336 31.8093 11.2081 31.5986 10.7891C31.3903 10.3677 31.2861 9.87405 31.2861 9.30824C31.2861 8.74953 31.3903 8.2571 31.5986 7.83097C31.8093 7.40483 32.1029 7.07221 32.4793 6.8331C32.8581 6.59399 33.3008 6.47443 33.8074 6.47443C34.1152 6.47443 34.4135 6.52533 34.7023 6.62713C34.9912 6.72893 35.2504 6.88873 35.48 7.10653C35.7097 7.32434 35.8908 7.60724 36.0233 7.95526C36.1559 8.3009 36.2222 8.72112 36.2222 9.21591V9.59233H31.8863V8.79688H35.1817C35.1817 8.51752 35.1249 8.27012 35.0113 8.05469C34.8976 7.83688 34.7378 7.66525 34.5319 7.53977C34.3283 7.4143 34.0892 7.35156 33.8145 7.35156C33.5162 7.35156 33.2558 7.42495 33.0333 7.57173C32.8131 7.71615 32.6427 7.90554 32.5219 8.13991C32.4036 8.37192 32.3444 8.62405 32.3444 8.89631V9.51776C32.3444 9.88234 32.4083 10.1925 32.5361 10.4482C32.6663 10.7038 32.8474 10.8991 33.0795 11.0341C33.3115 11.1667 33.5825 11.233 33.8927 11.233C34.0939 11.233 34.2774 11.2045 34.4431 11.1477C34.6088 11.0885 34.752 11.0009 34.8728 10.8849C34.9935 10.7689 35.0858 10.6257 35.1498 10.4553L36.1547 10.6364C36.0742 10.9323 35.9298 11.1915 35.7215 11.4141C35.5155 11.6342 35.2563 11.8059 34.9438 11.929C34.6337 12.0497 34.2797 12.1101 33.882 12.1101ZM41.4877 7.87713L40.5253 8.04759C40.4851 7.92448 40.4211 7.80729 40.3335 7.69602C40.2483 7.58475 40.1323 7.49361 39.9855 7.42259C39.8387 7.35156 39.6553 7.31605 39.4351 7.31605C39.1344 7.31605 38.8835 7.38352 38.6823 7.51847C38.481 7.65104 38.3804 7.82268 38.3804 8.03338C38.3804 8.21567 38.4479 8.36245 38.5828 8.47372C38.7178 8.58499 38.9356 8.67614 39.2362 8.74716L40.1027 8.94602C40.6046 9.06203 40.9787 9.24077 41.2249 9.48224C41.4711 9.72372 41.5942 10.0374 41.5942 10.4233C41.5942 10.75 41.4995 11.0412 41.3101 11.2969C41.1231 11.5502 40.8615 11.7491 40.5253 11.8935C40.1915 12.0379 39.8044 12.1101 39.3641 12.1101C38.7533 12.1101 38.2549 11.9799 37.8691 11.7195C37.4832 11.4567 37.2464 11.0838 37.1588 10.6009L38.1851 10.4446C38.249 10.7121 38.3804 10.9145 38.5793 11.0518C38.7781 11.1868 39.0374 11.2543 39.357 11.2543C39.705 11.2543 39.9832 11.1821 40.1915 11.0376C40.3998 10.8909 40.504 10.7121 40.504 10.5014C40.504 10.331 40.4401 10.1877 40.3122 10.0717C40.1868 9.95573 39.9938 9.86813 39.7334 9.80895L38.8101 9.60653C38.3011 9.49053 37.9247 9.30587 37.6808 9.05256C37.4394 8.79924 37.3186 8.47846 37.3186 8.0902C37.3186 7.76823 37.4086 7.48651 37.5885 7.24503C37.7684 7.00355 38.017 6.81534 38.3343 6.6804C38.6515 6.54309 39.0149 6.47443 39.4244 6.47443C40.0139 6.47443 40.478 6.60227 40.8165 6.85795C41.155 7.11127 41.3788 7.45099 41.4877 7.87713ZM46.849 7.87713L45.8866 8.04759C45.8464 7.92448 45.7825 7.80729 45.6949 7.69602C45.6096 7.58475 45.4936 7.49361 45.3469 7.42259C45.2001 7.35156 45.0166 7.31605 44.7964 7.31605C44.4958 7.31605 44.2448 7.38352 44.0436 7.51847C43.8424 7.65104 43.7417 7.82268 43.7417 8.03338C43.7417 8.21567 43.8092 8.36245 43.9442 8.47372C44.0791 8.58499 44.2969 8.67614 44.5976 8.74716L45.464 8.94602C45.9659 9.06203 46.34 9.24077 46.5862 9.48224C46.8324 9.72372 46.9555 10.0374 46.9555 10.4233C46.9555 10.75 46.8608 11.0412 46.6714 11.2969C46.4844 11.5502 46.2228 11.7491 45.8866 11.8935C45.5528 12.0379 45.1657 12.1101 44.7254 12.1101C44.1146 12.1101 43.6163 11.9799 43.2304 11.7195C42.8445 11.4567 42.6077 11.0838 42.5202 10.6009L43.5464 10.4446C43.6104 10.7121 43.7417 10.9145 43.9406 11.0518C44.1395 11.1868 44.3987 11.2543 44.7183 11.2543C45.0663 11.2543 45.3445 11.1821 45.5528 11.0376C45.7612 10.8909 45.8653 10.7121 45.8653 10.5014C45.8653 10.331 45.8014 10.1877 45.6736 10.0717C45.5481 9.95573 45.3551 9.86813 45.0947 9.80895L44.1714 9.60653C43.6624 9.49053 43.286 9.30587 43.0422 9.05256C42.8007 8.79924 42.68 8.47846 42.68 8.0902C42.68 7.76823 42.7699 7.48651 42.9498 7.24503C43.1298 7.00355 43.3783 6.81534 43.6956 6.6804C44.0128 6.54309 44.3762 6.47443 44.7858 6.47443C45.3753 6.47443 45.8393 6.60227 46.1778 6.85795C46.5164 7.11127 46.7401 7.45099 46.849 7.87713ZM48.123 12V6.54545H49.1847V12H48.123ZM48.6592 5.70384C48.4745 5.70384 48.3159 5.64228 48.1833 5.51918C48.0531 5.3937 47.988 5.24455 47.988 5.07173C47.988 4.89654 48.0531 4.7474 48.1833 4.62429C48.3159 4.49882 48.4745 4.43608 48.6592 4.43608C48.8438 4.43608 49.0013 4.49882 49.1315 4.62429C49.2641 4.7474 49.3303 4.89654 49.3303 5.07173C49.3303 5.24455 49.2641 5.3937 49.1315 5.51918C49.0013 5.64228 48.8438 5.70384 48.6592 5.70384ZM52.9108 12.1101C52.3994 12.1101 51.9532 11.9929 51.572 11.7585C51.1908 11.5241 50.8949 11.1963 50.6842 10.7749C50.4735 10.3535 50.3682 9.86103 50.3682 9.29759C50.3682 8.73177 50.4735 8.23698 50.6842 7.81321C50.8949 7.38944 51.1908 7.06037 51.572 6.82599C51.9532 6.59162 52.3994 6.47443 52.9108 6.47443C53.4221 6.47443 53.8684 6.59162 54.2496 6.82599C54.6307 7.06037 54.9266 7.38944 55.1373 7.81321C55.348 8.23698 55.4534 8.73177 55.4534 9.29759C55.4534 9.86103 55.348 10.3535 55.1373 10.7749C54.9266 11.1963 54.6307 11.5241 54.2496 11.7585C53.8684 11.9929 53.4221 12.1101 52.9108 12.1101ZM52.9143 11.2188C53.2458 11.2188 53.5204 11.1312 53.7382 10.956C53.956 10.7808 54.117 10.5476 54.2211 10.2564C54.3277 9.9652 54.3809 9.64441 54.3809 9.29403C54.3809 8.94602 54.3277 8.62642 54.2211 8.33523C54.117 8.04167 53.956 7.80611 53.7382 7.62855C53.5204 7.45099 53.2458 7.36222 52.9143 7.36222C52.5805 7.36222 52.3035 7.45099 52.0834 7.62855C51.8656 7.80611 51.7034 8.04167 51.5969 8.33523C51.4927 8.62642 51.4406 8.94602 51.4406 9.29403C51.4406 9.64441 51.4927 9.9652 51.5969 10.2564C51.7034 10.5476 51.8656 10.7808 52.0834 10.956C52.3035 11.1312 52.5805 11.2188 52.9143 11.2188ZM57.7004 8.76136V12H56.6386V6.54545H57.6578V7.43324H57.7252C57.8507 7.14441 58.0472 6.91241 58.3147 6.73722C58.5846 6.56203 58.9243 6.47443 59.3339 6.47443C59.7056 6.47443 60.0311 6.55256 60.3105 6.70881C60.5898 6.86269 60.8064 7.09233 60.9603 7.39773C61.1142 7.70312 61.1911 8.08073 61.1911 8.53054V12H60.1294V8.65838C60.1294 8.26302 60.0264 7.95407 59.8204 7.73153C59.6144 7.50663 59.3315 7.39418 58.9717 7.39418C58.7255 7.39418 58.5065 7.44744 58.3147 7.55398C58.1253 7.66051 57.975 7.81676 57.8637 8.02273C57.7548 8.22633 57.7004 8.47254 57.7004 8.76136ZM65.3469 12V4.72727H69.9065V5.67188H66.4442V7.88778H69.6686V8.82884H66.4442V11.0554H69.9491V12H65.3469ZM75.9532 6.54545L73.9752 12H72.8389L70.8573 6.54545H71.9972L73.3786 10.7429H73.4355L74.8133 6.54545H75.9532ZM79.1164 12.1101C78.579 12.1101 78.1162 11.9953 77.7279 11.7656C77.342 11.5336 77.0437 11.2081 76.833 10.7891C76.6247 10.3677 76.5205 9.87405 76.5205 9.30824C76.5205 8.74953 76.6247 8.2571 76.833 7.83097C77.0437 7.40483 77.3373 7.07221 77.7137 6.8331C78.0925 6.59399 78.5352 6.47443 79.0418 6.47443C79.3496 6.47443 79.6479 6.52533 79.9367 6.62713C80.2255 6.72893 80.4848 6.88873 80.7144 7.10653C80.944 7.32434 81.1251 7.60724 81.2577 7.95526C81.3903 8.3009 81.4566 8.72112 81.4566 9.21591V9.59233H77.1206V8.79688H80.4161C80.4161 8.51752 80.3593 8.27012 80.2456 8.05469C80.132 7.83688 79.9722 7.66525 79.7662 7.53977C79.5626 7.4143 79.3235 7.35156 79.0489 7.35156C78.7506 7.35156 78.4902 7.42495 78.2677 7.57173C78.0475 7.71615 77.877 7.90554 77.7563 8.13991C77.6379 8.37192 77.5787 8.62405 77.5787 8.89631V9.51776C77.5787 9.88234 77.6427 10.1925 77.7705 10.4482C77.9007 10.7038 78.0818 10.8991 78.3138 11.0341C78.5458 11.1667 78.8169 11.233 79.127 11.233C79.3283 11.233 79.5117 11.2045 79.6775 11.1477C79.8432 11.0885 79.9864 11.0009 80.1072 10.8849C80.2279 10.7689 80.3202 10.6257 80.3841 10.4553L81.3891 10.6364C81.3086 10.9323 81.1642 11.1915 80.9559 11.4141C80.7499 11.6342 80.4907 11.8059 80.1782 11.929C79.868 12.0497 79.5141 12.1101 79.1164 12.1101ZM83.6965 8.76136V12H82.6347V6.54545H83.6539V7.43324H83.7213C83.8468 7.14441 84.0433 6.91241 84.3108 6.73722C84.5807 6.56203 84.9204 6.47443 85.33 6.47443C85.7017 6.47443 86.0272 6.55256 86.3066 6.70881C86.5859 6.86269 86.8025 7.09233 86.9564 7.39773C87.1103 7.70312 87.1872 8.08073 87.1872 8.53054V12H86.1254V8.65838C86.1254 8.26302 86.0225 7.95407 85.8165 7.73153C85.6105 7.50663 85.3276 7.39418 84.9678 7.39418C84.7216 7.39418 84.5026 7.44744 84.3108 7.55398C84.1214 7.66051 83.9711 7.81676 83.8598 8.02273C83.7509 8.22633 83.6965 8.47254 83.6965 8.76136ZM91.1574 6.54545V7.39773H88.178V6.54545H91.1574ZM88.977 5.23864H90.0388V10.3984C90.0388 10.6044 90.0696 10.7595 90.1311 10.8636C90.1927 10.9654 90.272 11.0353 90.3691 11.0732C90.4685 11.1087 90.5762 11.1264 90.6922 11.1264C90.7774 11.1264 90.852 11.1205 90.9159 11.1087C90.9798 11.0968 91.0296 11.0874 91.0651 11.0803L91.2568 11.9574C91.1953 11.9811 91.1077 12.0047 90.9941 12.0284C90.8804 12.0545 90.7384 12.0687 90.5679 12.071C90.2886 12.0758 90.0281 12.026 89.7867 11.9219C89.5452 11.8177 89.3499 11.6567 89.2007 11.4389C89.0516 11.2211 88.977 10.9477 88.977 10.6186V5.23864Z" fill="#4C4C4C"/>
</svg>
